<?xml version="1.0" encoding="UTF-8"?>
<svg width="240px" height="244px" viewBox="0 0 240 244" version="1.1" xmlns="http://www.w3.org/2000/svg" xmlns:xlink="http://www.w3.org/1999/xlink">
    <!-- Generator: Sketch 55.2 (78181) - https://sketchapp.com -->
    <title>Group</title>
    <desc>Created with Sketch.</desc>
    <defs>
        <rect id="path-1" x="0" y="0" width="224" height="228" rx="8"></rect>
        <filter x="-5.8%" y="-4.8%" width="111.6%" height="111.4%" filterUnits="objectBoundingBox" id="filter-2">
            <feOffset dx="0" dy="2" in="SourceAlpha" result="shadowOffsetOuter1"></feOffset>
            <feGaussianBlur stdDeviation="4" in="shadowOffsetOuter1" result="shadowBlurOuter1"></feGaussianBlur>
            <feColorMatrix values="0 0 0 0 0   0 0 0 0 0   0 0 0 0 0  0 0 0 0.281140734 0" type="matrix" in="shadowBlurOuter1"></feColorMatrix>
        </filter>
        <circle id="path-3" cx="66.9" cy="66.9" r="66.9"></circle>
        <circle id="path-5" cx="66.9" cy="66.9" r="66.9"></circle>
        <rect id="path-7" x="0" y="0" width="12" height="23.4"></rect>
    </defs>
    <g id="Page-1" stroke="none" stroke-width="1" fill="none" fill-rule="evenodd">
        <g id="Landing-page-Header" transform="translate(-699.000000, -758.000000)">
            <g id="Pizza-Stop-Panel" transform="translate(696.000000, 764.000000)">
                <g id="Group" transform="translate(11.000000, 0.000000)">
                    <g id="Rectangle">
                        <use fill="black" fill-opacity="1" filter="url(#filter-2)" xlink:href="#path-1"></use>
                        <use fill="#072961" fill-rule="evenodd" xlink:href="#path-1"></use>
                    </g>
                    <g id="Bridge-Stop" transform="translate(22.000000, 20.000000)">
                        <g id="Bridge">
                            <g transform="translate(0.174609, 0.474609)">
                                <g id="Pin" transform="translate(13.200000, 0.000000)" fill="#65D5D8" stroke="#FFFFFF">
                                    <g id="Oval">
                                        <ellipse stroke-width="7.8" cx="72.4253906" cy="109.625391" rx="18" ry="77.7"></ellipse>
                                        <circle stroke-width="9.6" cx="71.7" cy="71.7" r="71.7"></circle>
                                    </g>
                                </g>
                                <g id="Suspension-Backside" transform="translate(17.825391, 4.925391)">
                                    <mask id="mask-4" fill="white">
                                        <use xlink:href="#path-3"></use>
                                    </mask>
                                    <g id="Mask"></g>
                                    <path d="M-31.8,6.08671875 C-25.439502,25.565625 -6.03369141,56.7 58.7663086,72.0873047" id="Path-7-Copy-3" stroke="#0A6A95" stroke-width="1.8" mask="url(#mask-4)" transform="translate(13.483154, 39.087012) scale(-1, 1) translate(-13.483154, -39.087012) "></path>
                                    <path d="M-49.2,3 C-42.839502,22.4789062 -23.4336914,53.6132812 41.3663086,69.0005859" id="Path-7-Copy-5" stroke="#0A6A95" stroke-width="1.8" mask="url(#mask-4)" transform="translate(-3.916846, 36.000293) scale(-1, 1) translate(3.916846, -36.000293) "></path>
                                    <path d="M1.2,6.08671875 C7.56049805,25.565625 26.9663086,56.7 91.7663086,72.0873047" id="Path-7-Copy-4" stroke="#0A6A95" stroke-width="1.8" mask="url(#mask-4)" transform="translate(46.483154, 39.087012) scale(-1, 1) translate(-46.483154, -39.087012) "></path>
                                </g>
                                <rect id="Rectangle" stroke="#0A6A95" stroke-width="1.8" fill="#D4EEF9" x="54.1253906" y="117.425391" width="61.2" height="28.2"></rect>
                                <polygon id="Path-3" stroke="#0B698D" stroke-width="1.2" fill="#D4EEF9" points="55.7545179 111.125391 54.0612305 116.525391 115.26123 116.525391 112.731838 111"></polygon>
                                <rect id="Rectangle-Copy-3" stroke="#0A6A95" stroke-width="1.2" fill="#D4EEF9" x="87.4253906" y="7.32539062" width="25.2" height="103.2"></rect>
                                <rect id="Rectangle" stroke="#0A6A95" stroke-width="1.5" fill="#7AA0B1" x="55.9500002" y="7.35" width="5.7" height="102.9"></rect>
                                <path d="M107.825391,6.72539063 L107.825391,145.393945" id="Line-4" stroke="#0A6A95" stroke-width="1.8" stroke-linecap="square"></path>
                                <path d="M91.3253906,2.4 L91.3253906,145.393945" id="Line-5" stroke="#0B698D" stroke-width="1.2" stroke-linecap="square"></path>
                                <rect id="Rectangle-Copy" stroke="#0A6A95" stroke-width="0.9" fill="#D4EEF9" x="62.85" y="7.05" width="23.7" height="103.5"></rect>
                                <path d="M85.1800781,6.6 L85.1800781,145.268555" id="Line-6" stroke="#0A6A95" stroke-width="1.8" stroke-linecap="square"></path>
                                <path d="M60.1253906,117.425391 L60.1253906,145.393945" id="Line-3" stroke="#0A6A95" stroke-width="1.2" stroke-linecap="square"></path>
                                <rect id="Rectangle-Copy-2" stroke="#0A6A95" stroke-width="1.8" fill="#D4EEF9" x="62.1" y="7.5" width="5.4" height="102.6"></rect>
                                <path d="M77.5570313,21.3099609 C72.9583984,25.3029522 70.659082,29.9574369 70.659082,35.2734153 C70.659082,40.5893936 70.659082,56.7349088 70.659082,83.7099609 L83.3800781,83.7099609 C83.3800781,55.9744026 83.3800781,39.8288874 83.3800781,35.2734153 C83.3800781,30.7179431 81.4390625,26.0634584 77.5570313,21.3099609 Z" id="Path-2" stroke="#0B698D" stroke-width="1.2" fill="#65D5D8"></path>
                                <path d="M99.6070308,21.3099609 C95.4859374,25.3029522 93.4253906,29.9574369 93.4253906,35.2734153 C93.4253906,40.5893936 93.4253906,56.7349088 93.4253906,83.7099609 L104.825391,83.7099609 C104.825391,55.9744026 104.825391,39.8288874 104.825391,35.2734153 C104.825391,30.7179431 103.085937,26.0634584 99.6070308,21.3099609 Z" id="Path-2-Copy" stroke="#0B698D" stroke-width="1.2" fill="#65D5D8"></path>
                                <polygon id="Path" stroke="#0D6291" stroke-width="1.8" fill="#D4EEF9" points="53.4 2.4 86.7181641 2.4 86.7181641 6.6 55.6253906 6.6"></polygon>
                                <polygon id="Path-Copy" stroke="#0D6291" stroke-width="1.8" fill="#D4EEF9" transform="translate(100.800000, 4.500000) scale(-1, 1) translate(-100.800000, -4.500000) " points="87 2.4 114.6 2.4 114.6 6.6 88.8434624 6.6"></polygon>
                                <g id="Horizontal-Bridge-parts" transform="translate(17.825391, 4.200000)">
                                    <mask id="mask-6" fill="white">
                                        <use xlink:href="#path-5"></use>
                                    </mask>
                                    <g id="Mask"></g>
                                    <rect id="Rectangle-Copy-5" stroke="#0B698D" stroke-width="1.2" fill="#D4EEF9" mask="url(#mask-6)" x="52.9746094" y="76.3253906" width="91.8" height="1.2"></rect>
                                    <rect id="Rectangle-Copy-6" stroke="#0B698D" stroke-width="1.2" fill="#D4EEF9" mask="url(#mask-6)" x="-8.4" y="76.3253906" width="46.2" height="1.2"></rect>
                                    <rect id="Rectangle" stroke="#0B698D" stroke-width="1.2" fill="#D4EEF9" mask="url(#mask-6)" x="52.9746094" y="72.6" width="91.8" height="3.6"></rect>
                                    <rect id="Rectangle-Copy-4" stroke="#0B698D" stroke-width="1.2" fill="#D4EEF9" mask="url(#mask-6)" x="-8.4" y="72.6" width="46.2" height="3.6"></rect>
                                    <g id="diagonal-lines" mask="url(#mask-6)" stroke-linecap="square">
                                        <g transform="translate(-11.400000, 72.512695)">
                                            <g id="pair" transform="translate(8.400000, 0.000000)">
                                                <path d="M3.9,0.512695312 L0.3,4.28730469" id="Line-8" stroke="#0B698D" stroke-width="1.2"></path>
                                                <path d="M6,0.3 L2.4,4.07460938" id="Line-8-Copy" stroke="#0B698D" stroke-width="1.2"></path>
                                            </g>
                                            <g id="pair-copy-6" transform="translate(74.400000, 0.000000)">
                                                <path d="M3.9,0.512695312 L0.3,4.28730469" id="Line-8" stroke="#0B698D" stroke-width="1.2"></path>
                                                <path d="M6,0.3 L2.4,4.07460938" id="Line-8-Copy" stroke="#0B698D" stroke-width="1.2"></path>
                                            </g>
                                            <g id="pair-copy-5" transform="translate(0.000000, 0.212695)">
                                                <path d="M3.9,0.512695312 L0.3,4.28730469" id="Line-8" stroke="#0B698D" stroke-width="1.2"></path>
                                                <path d="M6,0.3 L2.4,4.07460938" id="Line-8-Copy" stroke="#0B698D" stroke-width="1.2"></path>
                                            </g>
                                            <g id="pair-copy-7" transform="translate(66.000000, 0.212695)">
                                                <path d="M3.9,0.512695312 L0.3,4.28730469" id="Line-8" stroke="#0B698D" stroke-width="1.2"></path>
                                                <path d="M6,0.3 L2.4,4.07460938" id="Line-8-Copy" stroke="#0B698D" stroke-width="1.2"></path>
                                            </g>
                                            <g id="pair-copy" transform="translate(15.600000, 0.000000)">
                                                <path d="M3.9,0.512695312 L0.3,4.28730469" id="Line-8" stroke="#0B698D" stroke-width="1.2"></path>
                                                <path d="M6,0.3 L2.4,4.07460938" id="Line-8-Copy" stroke="#0B698D" stroke-width="1.2"></path>
                                            </g>
                                            <g id="pair-copy-8" transform="translate(81.600000, 0.000000)">
                                                <path d="M3.9,0.512695312 L0.3,4.28730469" id="Line-8" stroke="#0B698D" stroke-width="1.2"></path>
                                                <path d="M6,0.3 L2.4,4.07460938" id="Line-8-Copy" stroke="#0B698D" stroke-width="1.2"></path>
                                            </g>
                                            <g id="pair-copy-2" transform="translate(24.000000, 0.000000)">
                                                <path d="M3.9,0.512695312 L0.3,4.28730469" id="Line-8" stroke="#0B698D" stroke-width="1.2"></path>
                                                <path d="M6,0.3 L2.4,4.07460938" id="Line-8-Copy" stroke="#0B698D" stroke-width="1.2"></path>
                                            </g>
                                            <g id="pair-copy-9" transform="translate(90.000000, 0.000000)">
                                                <path d="M3.9,0.512695312 L0.3,4.28730469" id="Line-8" stroke="#0B698D" stroke-width="1.2"></path>
                                                <path d="M6,0.3 L2.4,4.07460938" id="Line-8-Copy" stroke="#0B698D" stroke-width="1.2"></path>
                                            </g>
                                            <g id="pair-copy-3" transform="translate(32.400000, 0.000000)">
                                                <path d="M3.9,0.512695312 L0.3,4.28730469" id="Line-8" stroke="#0B698D" stroke-width="1.2"></path>
                                                <path d="M6,0.3 L2.4,4.07460938" id="Line-8-Copy" stroke="#0B698D" stroke-width="1.2"></path>
                                            </g>
                                            <g id="pair-copy-10" transform="translate(98.400000, 0.000000)">
                                                <path d="M3.9,0.512695312 L0.3,4.28730469" id="Line-8" stroke="#0B698D" stroke-width="1.2"></path>
                                                <path d="M6,0.3 L2.4,4.07460938" id="Line-8-Copy" stroke="#0B698D" stroke-width="1.2"></path>
                                            </g>
                                            <g id="pair-copy-4" transform="translate(40.800000, 0.000000)">
                                                <path d="M3.9,0.512695312 L0.3,4.28730469" id="Line-8" stroke="#0B698D" stroke-width="1.2"></path>
                                                <path d="M6,0.3 L2.4,4.07460938" id="Line-8-Copy" stroke="#0B698D" stroke-width="1.2"></path>
                                            </g>
                                            <g id="pair-copy-12" transform="translate(115.200000, 0.000000)">
                                                <path d="M3.9,0.512695312 L0.3,4.28730469" id="Line-8" stroke="#0B698D" stroke-width="1.2"></path>
                                                <path d="M6,0.3 L2.4,4.07460938" id="Line-8-Copy" stroke="#0B698D" stroke-width="1.2"></path>
                                            </g>
                                            <g id="pair-copy-13" transform="translate(123.600000, 0.000000)">
                                                <path d="M3.9,0.512695312 L0.3,4.28730469" id="Line-8" stroke="#0B698D" stroke-width="1.2"></path>
                                                <path d="M6,0.3 L2.4,4.07460938" id="Line-8-Copy" stroke="#0B698D" stroke-width="1.2"></path>
                                            </g>
                                            <g id="pair-copy-14" transform="translate(132.000000, 0.000000)">
                                                <path d="M3.9,0.512695312 L0.3,4.28730469" id="Line-8" stroke="#0B698D" stroke-width="1.2"></path>
                                                <path d="M6,0.3 L2.4,4.07460938" id="Line-8-Copy" stroke="#0B698D" stroke-width="1.2"></path>
                                            </g>
                                            <g id="pair-copy-15" transform="translate(140.400000, 0.000000)">
                                                <path d="M3.9,0.512695312 L0.3,4.28730469" id="Line-8" stroke="#0B698D" stroke-width="1.2"></path>
                                                <path d="M6,0.3 L2.4,4.07460938" id="Line-8-Copy" stroke="#0B698D" stroke-width="1.2"></path>
                                            </g>
                                            <g id="pair-copy-16" transform="translate(148.800000, 0.000000)">
                                                <path d="M3.9,0.512695312 L0.3,4.28730469" id="Line-8" stroke="#0B698D" stroke-width="1.2"></path>
                                                <path d="M6,0.3 L2.4,4.07460938" id="Line-8-Copy" stroke="#0B698D" stroke-width="1.2"></path>
                                            </g>
                                            <g id="pair-copy-11" transform="translate(106.800000, 0.000000)">
                                                <path d="M3.9,0.512695312 L0.3,4.28730469" id="Line-8" stroke="#0B698D" stroke-width="1.2"></path>
                                                <path d="M6,0.3 L2.4,4.07460938" id="Line-8-Copy" stroke="#0B698D" stroke-width="1.2"></path>
                                            </g>
                                        </g>
                                    </g>
                                    <path d="M46.8336914,6.81210937 C53.1941895,26.2910156 72.6,57.4253906 137.4,72.8126953" id="Path-7" stroke="#0A6A95" stroke-width="1.8" mask="url(#mask-6)"></path>
                                    <path d="M71.4,6.72539063 C77.760498,26.2042969 97.1663086,57.3386719 161.966309,72.7259766" id="Path-7-Copy" stroke="#0A6A95" stroke-width="1.8" mask="url(#mask-6)"></path>
                                    <path d="M92.4,6.72539063 C98.760498,26.2042969 118.166309,57.3386719 182.966309,72.7259766" id="Path-7-Copy-2" stroke="#0A6A95" stroke-width="1.8" mask="url(#mask-6)"></path>
                                </g>
                                <g id="Group" transform="translate(71.225391, 44.012109)">
                                    <mask id="mask-8" fill="white">
                                        <use xlink:href="#path-7"></use>
                                    </mask>
                                    <g id="Mask"></g>
                                    <path d="M-49.1428571,-33.8544616 C-43.08524,-13.9382808 -24.6035156,17.8950181 37.1107701,33.6277465" id="Path-7-Copy-6" stroke="#0A6A95" stroke-width="1.8" mask="url(#mask-8)" transform="translate(-6.016044, -0.113358) scale(-1, 1) translate(6.016044, 0.113358) "></path>
                                </g>
                                <path d="M67.3746094,96.9 L67.3746094,145.268555" id="Line" stroke="#0A6A95" stroke-width="1.8" stroke-linecap="square"></path>
                                <path d="M61.8,111.125391 L60.1253906,117.425391" id="Line-2" stroke="#0A6A95" stroke-width="1.2" stroke-linecap="square"></path>
                                <path d="M58.8,2.4 L60.9626953,6.72539062" id="Line-7" stroke="#0D6291" stroke-width="1.2" stroke-linecap="square"></path>
                                <g id="shadows" transform="translate(54.832837, 3.112573)" fill="#7AA0B1">
                                    <polygon id="Path-4" points="1.35402832 108.6 1.77070858e-13 112.896753 5.07641602 112.896753 6.23012695 108.6"></polygon>
                                    <rect id="Rectangle" x="0" y="115.2" width="4.8" height="26.4"></rect>
                                    <polygon id="Path-5" points="3.9 0.188598633 1.43487305e-13 0.188598633 1.37966309 2.62141113 5.04851074 2.62141113"></polygon>
                                    <polygon id="Path-6" style="mix-blend-mode: darken;" points="16.5626953 78.0128174 4.99255371 87.6128174 57.255249 87.6128174 57.255249 78.6914781"></polygon>
                                </g>
                                <path d="M22.3253906,52.5099609 L22.3253906,75.9342773" id="Line-9" stroke="#0A6A95" stroke-width="1.2" stroke-linecap="square"></path>
                                <path d="M142.625391,52.5099609 L142.625391,75.9342773" id="Line-9-Copy-3" stroke="#0A6A95" stroke-width="1.2" stroke-linecap="square"></path>
                                <path d="M134.225391,46.9253906 L134.225391,75.9342773" id="Line-9-Copy-4" stroke="#0A6A95" stroke-width="1.2" stroke-linecap="square"></path>
                                <path d="M125.825391,37.9253906 L125.825391,75.9342773" id="Line-9-Copy-5" stroke="#0A6A95" stroke-width="1.2" stroke-linecap="square"></path>
                                <path d="M32.8253906,45.1253906 L32.8253906,75.9342773" id="Line-9-Copy" stroke="#0A6A95" stroke-width="1.2" stroke-linecap="square"></path>
                                <path d="M43.6253906,34.9253906 L43.6253906,75.9342773" id="Line-9-Copy-2" stroke="#0A6A95" stroke-width="1.2" stroke-linecap="square"></path>
                                <g id="Waves" transform="translate(21.425391, 137.525391)" fill="#65D5D8" stroke="#0A6A95" stroke-width="1.8">
                                    <polygon id="Triangle" points="80.1 0 96 10.8 64.2 10.8"></polygon>
                                    <polygon id="Triangle-Copy-6" points="15.9 0 31.8 10.8 0 10.8"></polygon>
                                    <polygon id="Triangle-Copy-4" points="121.5 0 137.4 10.8 105.6 10.8"></polygon>
                                    <polygon id="Triangle-Copy-7" points="57.3 0 73.2 10.8 41.4 10.8"></polygon>
                                    <polygon id="Triangle-Copy-2" points="99.3 0 115.2 10.8 83.4 10.8"></polygon>
                                    <polygon id="Triangle-Copy-8" points="35.1 0 51 10.8 19.2 10.8"></polygon>
                                    <polygon id="Triangle-Copy" points="90.3 0 106.2 10.8 74.4 10.8"></polygon>
                                    <polygon id="Triangle-Copy-9" points="26.1 0 42 10.8 10.2 10.8"></polygon>
                                    <polygon id="Triangle-Copy-5" points="131.7 0 147.6 10.8 115.8 10.8"></polygon>
                                    <polygon id="Triangle-Copy-10" points="67.5 0 83.4 10.8 51.6 10.8"></polygon>
                                    <polygon id="Triangle-Copy-3" points="109.5 0 125.4 10.8 93.6 10.8"></polygon>
                                    <polygon id="Triangle-Copy-11" points="45.3 0 61.2 10.8 29.4 10.8"></polygon>
                                </g>
                            </g>
                        </g>
                    </g>
                </g>
            </g>
        </g>
    </g>
</svg>