<?xml version="1.0" encoding="UTF-8"?>
<svg width="240px" height="244px" viewBox="0 0 240 244" version="1.1" xmlns="http://www.w3.org/2000/svg" xmlns:xlink="http://www.w3.org/1999/xlink">
    <!-- Generator: Sketch 55.2 (78181) - https://sketchapp.com -->
    <title>pizza</title>
    <desc>Created with Sketch.</desc>
    <defs>
        <rect id="path-1" x="0" y="0" width="224" height="228" rx="8"></rect>
        <filter x="-5.8%" y="-4.8%" width="111.6%" height="111.4%" filterUnits="objectBoundingBox" id="filter-2">
            <feOffset dx="0" dy="2" in="SourceAlpha" result="shadowOffsetOuter1"></feOffset>
            <feGaussianBlur stdDeviation="4" in="shadowOffsetOuter1" result="shadowBlurOuter1"></feGaussianBlur>
            <feColorMatrix values="0 0 0 0 0   0 0 0 0 0   0 0 0 0 0  0 0 0 0.281140734 0" type="matrix" in="shadowBlurOuter1"></feColorMatrix>
        </filter>
    </defs>
    <g id="Page-1" stroke="none" stroke-width="1" fill="none" fill-rule="evenodd">
        <g id="Landing-page-Header" transform="translate(-699.000000, -758.000000)">
            <g id="Pizza-Stop-Panel" transform="translate(701.000000, 764.000000)">
                <g id="pizza" transform="translate(6.000000, 0.000000)">
                    <g id="Rectangle-Copy">
                        <use fill="black" fill-opacity="1" filter="url(#filter-2)" xlink:href="#path-1"></use>
                        <use fill="#072961" fill-rule="evenodd" xlink:href="#path-1"></use>
                    </g>
                    <g id="Pizza-Stop" transform="translate(41.000000, 25.000000)">
                        <g>
                            <g id="Pin" fill="#65D5D8" stroke="#FFFFFF">
                                <g id="Oval">
                                    <ellipse stroke-width="7.41" cx="68.8041211" cy="104.144121" rx="17.1" ry="73.815"></ellipse>
                                    <circle stroke-width="9.12" cx="68.115" cy="68.115" r="68.115"></circle>
                                </g>
                            </g>
                            <g id="Slice" transform="translate(28.200000, 15.000000)">
                                <g id="Base" stroke="#0A6A95">
                                    <path d="M8.7,1.893383 C47.4132813,2.09653134 69.8550781,3.13175459 76.0253906,4.99905275 C82.1957031,6.86635092 83.4539062,11.2 79.8,18 L13.9394531,14.4 L8.7,1.893383 Z" id="Path-21" stroke-width="2.4" fill="#FFDA6A"></path>
                                    <path d="M9.6,13.1951459 C51.7439955,11.6072709 74.8912287,13.1967852 79.0416997,17.9636885 C83.1921706,22.7305919 70.3047921,51.7426957 40.3795642,105 L9.6,13.1951459 Z" id="Path-18" stroke-width="3" fill="#F3FFBD"></path>
                                    <path d="M1.76660156,10.377832 C23.0771484,63.8944336 33.7324219,96.1203125 33.7324219,107.055469 C33.7324219,117.990625 36.1882812,117.305469 41.1,105 L8.7,9.35933768 L1.76660156,10.377832 Z" id="Path-20" stroke-width="2.4" fill="#D1E285"></path>
                                    <path d="M40.1871094,107.055469 L33.7324219,107.055469" id="Path-19" stroke-width="2.4"></path>
                                    <path d="M9.4546875,14.4 L3,14.4" id="Path-19-Copy" stroke-width="2.4" transform="translate(6.227344, 14.400000) rotate(-20.000000) translate(-6.227344, -14.400000) "></path>
                                    <ellipse id="Oval" stroke-width="2.4" fill="#E2BF54" transform="translate(8.700000, 7.800000) rotate(-12.000000) translate(-8.700000, -7.800000) " cx="8.7" cy="7.8" rx="7.5" ry="6"></ellipse>
                                </g>
                                <g id="Pepperoni" transform="translate(30.600000, 18.000000)">
                                    <ellipse stroke="#0A6A95" stroke-width="2.4" fill="#F59971" cx="16.8" cy="25.8" rx="16.8" ry="25.8"></ellipse>
                                    <g id="Reflection" transform="translate(6.409210, 9.000000)" fill="#FBE5DB">
                                        <ellipse id="Oval" style="mix-blend-mode: overlay;" cx="2.4" cy="23.0540953" rx="2.4" ry="3.9"></ellipse>
                                        <ellipse id="Oval-Copy-56" style="mix-blend-mode: overlay;" cx="12.7907903" cy="10.5" rx="2.4" ry="3.9"></ellipse>
                                        <ellipse id="Oval-Copy-57" style="mix-blend-mode: overlay;" cx="17.5907903" cy="29.1" rx="2.4" ry="3.9"></ellipse>
                                        <ellipse id="Oval-Copy-58" style="mix-blend-mode: overlay;" cx="1.99079032" cy="2.1" rx="1.2" ry="2.1"></ellipse>
                                        <ellipse id="Oval-Copy-59" style="mix-blend-mode: overlay;" cx="11.5907903" cy="20.7" rx="1.2" ry="2.1"></ellipse>
                                        <ellipse id="Oval-Copy-60" style="mix-blend-mode: overlay;" cx="17.5907903" cy="2.1" rx="1.2" ry="2.1"></ellipse>
                                    </g>
                                </g>
                                <g id="Drops" transform="translate(14.630859, 14.193750)">
                                    <path d="M19.2,91.8492187 C20.734615,98.8222812 18.7383336,104.568809 20.3629878,111.324609 C21.7381481,117.04294 27.6661526,113.48552 28.722163,109.667578 C29.4926008,106.882107 24.20802,98.3385737 27.5912724,87.6" id="Path-22" stroke="#0A6A95" stroke-width="2.4" fill="#D1E285"></path>
                                    <path d="M10.2439453,13.3845703 C14.3908853,19.2123591 8.88066837,21.7188976 12.4570312,25.0294922" id="Path-25" stroke="#0A6A95" stroke-width="1.8" transform="translate(11.350488, 19.207031) rotate(17.000000) translate(-11.350488, -19.207031) "></path>
                                    <path d="M26.7691406,60.20625 C30.9160806,66.0340387 25.4058637,68.5405773 28.9822266,71.8511719" id="Path-25-Copy-2" stroke="#0A6A95" stroke-width="1.2" transform="translate(27.875684, 66.028711) rotate(122.000000) translate(-27.875684, -66.028711) "></path>
                                    <path d="M54.9691406,4.40625 C59.1160806,10.2340387 53.6058637,12.7405773 57.1822266,16.0511719" id="Path-25-Copy" stroke="#0A6A95" stroke-width="1.2" transform="translate(56.075684, 10.228711) rotate(-25.000000) translate(-56.075684, -10.228711) "></path>
                                    <path d="M44.9115234,56.6314453 C42.9883766,62.9878286 45.4684776,67.8520523 41.2253906,73.9224609 C40.7623852,74.5848636 39.2475071,75.2662296 38.8822266,74.5453125 C38.0423417,72.8877174 38.7724609,70.8304687 38.7175781,68.9730469" id="Path-26" stroke="#0A6A95" stroke-width="0.6" fill="#0A6A95"></path>
                                    <path d="M33.8051974,74.60625 C31.8820506,80.9626333 34.3621516,85.8268569 30.1190646,91.8972656 C29.6560591,92.5596683 28.1411811,93.2410343 27.7759005,92.5201172 C26.9360157,90.8625221 27.6661349,88.8052734 27.6112521,86.9478516" id="Path-26-Copy" stroke="#0A6A95" stroke-width="0.6" fill="#0A6A95"></path>
                                    <g id="Left-Drip" transform="translate(0.369141, 23.006250)">
                                        <path d="M2.9469714,1.2 C4.34197467,8.64051639 -1.95262178,18.0246485 0.628416713,25.0007813 C1.35702066,26.9700807 3.52741959,28.1522442 4.34677609,30.0855469 C5.29204466,32.3159438 4.70475775,35.0456982 5.80107296,37.2058594 C6.09851598,37.7919361 7.47269084,36.8854653 7.71005734,36.7125 C12.904661,32.9272734 11.3169657,21.0897734 2.9469714,1.2 Z" id="Path-27" stroke="#0A6A95" stroke-width="2.4" fill="#F3FFBD"></path>
                                        <path d="" id="Path-28" stroke="#979797" stroke-width="0.6"></path>
                                        <path d="M5.64699552,0.3 C3.56983184,8.9 2.53125,13.5 2.53125,14.1 C2.53125,14.7 3.83193359,17.6 6.43330078,22.8 L12.7652344,31.0511719 L18.0704212,29.4067901 L9.3,3.3984375 L5.64699552,0.3 Z" id="Path-29" fill="#F3FFBD"></path>
                                        <path d="M9.98789063,22.7501953 C8.89890959,32.5979888 17.9911505,33.5432105 15.8238281,27.7546875 C14.7070313,24.7719267 15.0792969,21.5695312 14.7070313,18.4769531" id="Path-30" stroke="#0A6A95" stroke-width="1.8" fill="#F3FFBD"></path>
                                        <g id="Top-bottom-drip" transform="translate(19.565625, 45.812109)">
                                            <path d="M0,2.4 C2.23421309,11.5982475 -0.942560142,31.2781636 2.11171875,33.5988281 C10.5205078,39.9878906 8.86523438,21.9878906 8.40497752,16.181543" id="Path-31" stroke="#0A6A95" stroke-width="2.4" fill="#F3FFBD"></path>
                                            <path d="M9.74707031,13.7671875 C9.12617188,14.8643555 8.50527344,15.9615234 7.884375,17.0586914" id="Path-33" stroke="#0A6A95" stroke-width="1.8"></path>
                                            <path d="M1.32714844,1.47890625 C1.7390625,4.23457031 1.6599895,7.1099684 2.56289063,9.74589844 C3.04233465,11.1455876 9.44502056,1.74291917 3.79570313,0.512695312" id="Path-32" fill="#F3FFBD"></path>
                                        </g>
                                    </g>
                                    <g id="Top-drip" transform="translate(18.969141, 0.206250)">
                                        <rect id="Rectangle" fill="#F3FFBD" x="4.2" y="0" width="16.2" height="6.6" rx="3.3"></rect>
                                        <polygon id="Path-24" fill="#F3FFBD" points="1.73964844 3.3 3.40920968 6.6 5.80920968 9.54235254 12.3 8.221875 18.6 5.4 17.0554687 1.10381657"></polygon>
                                        <path d="M0,5.91581352 C4.11235773,6.44921557 4.65586459,10.5163987 9.834375,9.32479789 C17.7768619,7.49719242 19.970874,1.57329013 27.8179687,9.17714164" id="Path-23" stroke="#0A6A95" stroke-width="2.4"></path>
                                    </g>
                                    <g id="Bottom-Pep-Drop" transform="translate(27.607617, 54.057422) rotate(-156.000000) translate(-27.607617, -54.057422) translate(18.907617, 51.057422)">
                                        <rect id="Rectangle" fill="#F3FFBD" x="2.4" y="0" width="10.2" height="4.2" rx="2.1"></rect>
                                        <polygon id="Path-24" fill="#F3FFBD" points="1.2 2.00538484 2.21003378 4.11712556 3.6619608 6 7.58869157 5.15499812 11.4 3.34921984 10.4656056 0.6"></polygon>
                                        <path d="M0,3.89885251 C2.57225914,4.20789547 2.91221996,6.56434377 6.15135226,5.87395299 C11.119338,4.81507326 12.4916815,1.38287734 17.4,5.78840378" id="Path-23" stroke="#0A6A95" stroke-width="2.4"></path>
                                    </g>
                                </g>
                            </g>
                        </g>
                    </g>
                </g>
            </g>
        </g>
    </g>
</svg>