<?xml version="1.0" encoding="UTF-8"?>
<svg width="240px" height="244px" viewBox="0 0 240 244" version="1.1" xmlns="http://www.w3.org/2000/svg" xmlns:xlink="http://www.w3.org/1999/xlink">
    <!-- Generator: Sketch 55.2 (78181) - https://sketchapp.com -->
    <title>ramen</title>
    <desc>Created with Sketch.</desc>
    <defs>
        <rect id="path-1" x="0" y="0" width="224" height="228" rx="8"></rect>
        <filter x="-5.8%" y="-4.8%" width="111.6%" height="111.4%" filterUnits="objectBoundingBox" id="filter-2">
            <feOffset dx="0" dy="2" in="SourceAlpha" result="shadowOffsetOuter1"></feOffset>
            <feGaussianBlur stdDeviation="4" in="shadowOffsetOuter1" result="shadowBlurOuter1"></feGaussianBlur>
            <feColorMatrix values="0 0 0 0 0   0 0 0 0 0   0 0 0 0 0  0 0 0 0.281140734 0" type="matrix" in="shadowBlurOuter1"></feColorMatrix>
        </filter>
        <rect id="path-3" x="0" y="0" width="112.25641" height="40.6179014"></rect>
    </defs>
    <g id="Page-1" stroke="none" stroke-width="1" fill="none" fill-rule="evenodd">
        <g id="Landing-page-Header" transform="translate(-699.000000, -758.000000)">
            <g id="Pizza-Stop-Panel" transform="translate(701.000000, 764.000000)">
                <g id="ramen" transform="translate(6.000000, 0.000000)">
                    <g id="Rectangle-Copy-2">
                        <use fill="black" fill-opacity="1" filter="url(#filter-2)" xlink:href="#path-1"></use>
                        <use fill="#072961" fill-rule="evenodd" xlink:href="#path-1"></use>
                    </g>
                    <g id="Ramen-Stop" transform="translate(41.000000, 25.000000)">
                        <g>
                            <g id="Pin" transform="translate(0.283333, 9.632898)" fill="#65D5D8" stroke="#FFFFFF">
                                <g id="Oval">
                                    <ellipse stroke-width="7.8" cx="68.3736205" cy="97.963115" rx="16.993007" ry="69.4340426"></ellipse>
                                    <ellipse stroke-width="9.6" cx="67.6888112" cy="64.0723404" rx="67.6888112" ry="64.0723404"></ellipse>
                                </g>
                            </g>
                            <g id="chopsticks" transform="translate(53.833333, 5.903518)">
                                <g id="chopstick" transform="translate(30.800131, 51.144539) rotate(-62.000000) translate(-30.800131, -51.144539) translate(-28.416536, 48.192781)">
                                    <path d="M0.897061942,1.74989099 C0.732530649,1.75150241 0.6,1.88533742 0.6,2.0498766 L0.6,3.74336357 C0.6,3.90790276 0.732530649,4.04173777 0.897061942,4.04334918 L117.398929,5.18436803 C117.400398,5.18438001 117.400398,5.18438001 117.401867,5.18438241 C117.567552,5.18438241 117.701867,5.05006784 117.701867,4.88438241 L117.701867,0.908857761 C117.701864,0.907388708 117.701864,0.907388708 117.701852,0.905919703 C117.70023,0.740242224 117.564606,0.607249503 117.398929,0.608872148 L0.897061942,1.74989099 Z" id="Rectangle" stroke="#0D6291" stroke-width="1.2" fill="#197EB6"></path>
                                    <polygon id="Path-10" fill="#0D6291" points="1.13248333 2.65523508 117.335487 1.94758099 117.335487 4.80035575 1.13248333 3.86216012"></polygon>
                                </g>
                                <g id="chopstick-copy" transform="translate(32.831064, 54.523930) rotate(-62.000000) translate(-32.831064, -54.523930) translate(-26.385602, 51.572171)">
                                    <path d="M0.897061942,1.74989099 C0.732530649,1.75150241 0.6,1.88533742 0.6,2.0498766 L0.6,3.74336357 C0.6,3.90790276 0.732530649,4.04173777 0.897061942,4.04334918 L117.398929,5.18436803 C117.400398,5.18438001 117.400398,5.18438001 117.401867,5.18438241 C117.567552,5.18438241 117.701867,5.05006784 117.701867,4.88438241 L117.701867,0.908857761 C117.701864,0.907388708 117.701864,0.907388708 117.701852,0.905919703 C117.70023,0.740242224 117.564606,0.607249503 117.398929,0.608872148 L0.897061942,1.74989099 Z" id="Rectangle" stroke="#0D6291" stroke-width="1.2" fill="#197EB6"></path>
                                    <polygon id="Path-10" fill="#0D6291" points="1.13248333 2.65523508 117.335488 1.94758099 117.335488 4.80035575 1.13248333 3.86216012"></polygon>
                                </g>
                            </g>
                            <g id="noodles-back" transform="translate(44.200000, 48.838191)" fill="#F3FFBD" stroke="#0D6291" stroke-width="1.8">
                                <g id="noodle-bunch-copy-6">
                                    <ellipse id="Oval" cx="12.7294686" cy="12.0753769" rx="12.7294686" ry="12.0753769"></ellipse>
                                    <ellipse id="Oval-Copy" cx="12.8244002" cy="12.1654305" rx="10.7876853" ry="10.2333702"></ellipse>
                                    <ellipse id="Oval-Copy-2" cx="12.7035782" cy="12.0508168" rx="8.6301482" ry="8.18669619"></ellipse>
                                    <ellipse id="Oval-Copy-3" cx="12.5827561" cy="11.936203" rx="6.47261115" ry="6.14002214"></ellipse>
                                    <ellipse id="Oval-Copy-4" cx="12.461934" cy="11.8215893" rx="4.3150741" ry="4.0933481"></ellipse>
                                </g>
                                <g id="noodle-bunch-copy-7" transform="translate(22.403865, 0.000000)">
                                    <ellipse id="Oval" cx="12.7294686" cy="12.0753769" rx="12.7294686" ry="12.0753769"></ellipse>
                                    <ellipse id="Oval-Copy" cx="12.8244002" cy="12.1654305" rx="10.7876853" ry="10.2333702"></ellipse>
                                    <ellipse id="Oval-Copy-2" cx="12.7035782" cy="12.0508168" rx="8.6301482" ry="8.18669619"></ellipse>
                                    <ellipse id="Oval-Copy-3" cx="12.5827561" cy="11.936203" rx="6.47261115" ry="6.14002214"></ellipse>
                                    <ellipse id="Oval-Copy-4" cx="12.461934" cy="11.8215893" rx="4.3150741" ry="4.0933481"></ellipse>
                                </g>
                                <g id="noodle-bunch-copy-8" transform="translate(44.807729, 0.000000)">
                                    <ellipse id="Oval" cx="12.7294686" cy="12.0753769" rx="12.7294686" ry="12.0753769"></ellipse>
                                    <ellipse id="Oval-Copy" cx="12.8244002" cy="12.1654305" rx="10.7876853" ry="10.2333702"></ellipse>
                                    <ellipse id="Oval-Copy-2" cx="12.7035782" cy="12.0508168" rx="8.6301482" ry="8.18669619"></ellipse>
                                    <ellipse id="Oval-Copy-3" cx="12.5827561" cy="11.936203" rx="6.47261115" ry="6.14002214"></ellipse>
                                    <ellipse id="Oval-Copy-4" cx="12.461934" cy="11.8215893" rx="4.3150741" ry="4.0933481"></ellipse>
                                </g>
                            </g>
                            <g id="seaweed" transform="translate(29.466667, 32.201005)" stroke="#0D6291">
                                <g id="seaweed-copy" transform="translate(4.059701, 3.391541)">
                                    <g id="seaweed-piece">
                                        <polygon id="Path-9" stroke-width="2.4" fill="#7AA0B1" points="0 25.5775566 7.05287124 0 29.9402985 1.42796747 22.5175816 31.3916269"></polygon>
                                        <path d="M9.3880597,3.53253981 L27.9104478,4.9860574" id="Line-11" stroke-opacity="0.8" stroke-width="1.8" stroke-linecap="square"></path>
                                        <path d="M8.88059701,9.34661017 L27.4029851,10.8001278" id="Line-11-Copy-2" stroke-opacity="0.8" stroke-width="1.8" stroke-linecap="square"></path>
                                        <path d="M9.3880597,6.43957499 L27.9104478,7.89309258" id="Line-11-Copy" stroke-opacity="0.8" stroke-width="1.8" stroke-linecap="square"></path>
                                    </g>
                                </g>
                                <g transform="translate(0.000000, -0.000000)" id="seaweed-piece">
                                    <g>
                                        <polygon id="Path-9" stroke-width="2.4" fill="#7AA0B1" points="0 25.5775566 7.05287124 0 29.9402985 1.42796747 22.5175816 31.3916269"></polygon>
                                        <path d="M9.3880597,3.53253981 L27.9104478,4.9860574" id="Line-11" stroke-opacity="0.8" stroke-width="1.8" stroke-linecap="square"></path>
                                        <path d="M8.88059701,9.34661017 L27.4029851,10.8001278" id="Line-11-Copy-2" stroke-opacity="0.8" stroke-width="1.8" stroke-linecap="square"></path>
                                        <path d="M9.3880597,6.43957499 L27.9104478,7.89309258" id="Line-11-Copy" stroke-opacity="0.8" stroke-width="1.8" stroke-linecap="square"></path>
                                    </g>
                                </g>
                            </g>
                            <g id="shrimp" transform="translate(66.758241, 54.138766) rotate(25.000000) translate(-66.758241, -54.138766) translate(55.991575, 29.719670)" stroke="#0D6291" stroke-width="2.4">
                                <g id="tail" transform="translate(0.492473, 0.110601)" fill="#F59971">
                                    <path d="M7.55891853,12.4490858 C0.300507465,6.95480302 -1.73051582,3.11208367 1.46584869,0.920927763 C6.26039545,-2.3658061 11.6542606,3.99630456 11.254715,6.68500678 C10.9883513,8.47747493 9.75641913,10.3988346 7.55891853,12.4490858 Z" id="Path-11"></path>
                                    <path d="M16.1640206,13.028113 C8.90560957,7.53383026 6.87458629,3.69111092 10.0709508,1.49995501 C14.8654976,-1.78677886 20.2593627,4.5753318 19.8598171,7.26403403 C19.5934534,9.05650217 18.3615212,10.9778618 16.1640206,13.028113 Z" id="Path-11-Copy" transform="translate(14.242928, 6.803570) scale(-1, 1) translate(-14.242928, -6.803570) "></path>
                                </g>
                                <path d="M5.61988526,28.3436775 L6.59426604,28.5302032 L6.59426604,30.1579927 L6.27040362,30.5040313 C5.69963632,31.1138813 5.38357915,31.8867179 5.38357915,32.7048955 C5.38357915,33.251678 5.52396206,33.7778507 5.79054083,34.2523102 L6.48787138,35.4934259 L5.14665051,35.9706729 C4.73670067,36.1165454 4.47556398,36.4663726 4.47556398,36.843717 C4.47556398,37.1031624 4.59589843,37.3483281 4.81399856,37.5288431 L5.89926866,38.4270889 L4.83985439,39.355689 C4.6050289,39.5615188 4.47556398,39.8357228 4.47556398,40.1262306 C4.47556398,40.5884547 4.81224246,41.0108506 5.32072588,41.1573367 L6.56935661,41.5170479 L6.11161248,42.7331651 C6.03064083,42.9482875 5.9889226,43.1751386 5.9889226,43.4087442 C5.9889226,44.5356491 6.9829425,45.4807783 8.24855958,45.4911713 L8.93412496,45.496801 L9.27742483,46.0902458 C9.66787685,46.7652002 10.4349649,47.2038736 11.2963646,47.2038736 C12.3187123,47.2038736 13.1956913,46.5855832 13.4807675,45.7222779 L13.9082745,44.427645 L15.1381518,45.0160652 C15.3971063,45.1399589 15.6857844,45.2058218 15.9877763,45.2058218 C17.0118644,45.2058218 17.8144936,44.4488987 17.8144936,43.5514622 C17.8144936,43.5124678 17.8130229,43.473751 17.8101017,43.4353323 L17.7690478,42.895393 L18.1467393,42.5073608 C18.5177651,42.1261769 18.7225087,41.6401327 18.7225087,41.1252565 C18.7225087,40.4957106 18.4142672,39.9083377 17.8820379,39.5112704 L16.4535036,38.4455186 L17.9783342,37.5227896 C19.0064961,36.9006125 19.6305239,35.8474041 19.6305239,34.7029472 C19.6305239,34.0621798 19.4374408,33.4494897 19.0761771,32.9174867 L18.2449302,31.6933784 L19.6142977,31.1328025 C19.9973814,30.9759801 20.2358673,30.639745 20.2358673,30.2786897 C20.2358673,29.8913553 19.9603732,29.5333963 19.534046,29.3951988 L18.6209481,29.0992103 L18.7091582,28.1433987 C18.7180376,28.0471843 18.7225087,27.9501695 18.7225087,27.852484 C18.7225087,27.042318 18.4126747,26.2766167 17.8521256,25.6693093 L17.1008873,24.8554064 L17.8521256,24.0415035 C18.4126747,23.434196 18.7225087,22.6684948 18.7225087,21.8583287 C18.7225087,20.9982598 18.372871,20.1882769 17.7476631,19.566755 L16.8369017,18.6613631 L17.8018971,17.8140115 C18.0056792,17.6350727 18.1171653,17.3986572 18.1171653,17.1486353 C18.1171653,16.8670327 17.9746003,16.6014047 17.7218346,16.4195929 L16.6180835,15.625676 L17.5429789,14.6291124 C18.107554,14.0207895 18.419837,13.2522704 18.419837,12.4389418 C18.419837,10.5956537 16.8041434,9.07196637 14.7770894,9.07196637 C13.7468681,9.07196637 12.7914482,9.46798198 12.1070801,10.1494649 L11.7559183,10.4991462 L7.08613397,10.4991462 L6.7258205,10.0467669 C6.52732317,9.79755035 6.20618785,9.6428383 5.84827362,9.6428383 C5.24208797,9.6428383 4.77823571,10.0802763 4.77823571,10.583608 C4.77823571,10.7927619 4.85549785,10.9910776 5.00105443,11.1566819 L5.53613443,11.7654592 L5.17122195,12.4891713 C5.11162265,12.6073715 5.08090743,12.7343842 5.08090743,12.8670958 C5.08090743,13.2515131 5.35217334,13.6071145 5.77372773,13.7476278 L6.59426604,14.0211313 L6.59426604,16.1634769 L5.44263827,16.209937 C4.21323043,16.259535 3.26487709,17.1906269 3.26487709,18.2903791 C3.26487709,19.1638665 3.86527956,19.9495226 4.76861954,20.2489499 L5.89734796,20.6230861 L5.53350775,21.7551753 C5.43443073,22.0634536 5.38357915,22.3852419 5.38357915,22.7146366 C5.38357915,23.4240505 5.6205758,24.0992187 6.05849254,24.6664815 L7.09936439,26.0147923 L5.47936589,26.5410634 C5.05340452,26.6794408 4.77823571,27.0372194 4.77823571,27.4243301 C4.77823571,27.8562825 5.12185202,28.248339 5.61988526,28.3436775 Z" id="Combined-Shape" fill="#FFDA6A"></path>
                            </g>
                            <g id="egg" transform="translate(11.900000, 35.421106)" stroke="#0D6291" stroke-width="2.4">
                                <ellipse id="Oval" fill="#FFFFFF" transform="translate(17.283333, 17.978894) rotate(-21.000000) translate(-17.283333, -17.978894) " cx="17.2833333" cy="17.9788945" rx="12.1330334" ry="14.6649798"></ellipse>
                                <ellipse id="Oval" fill="#F3FFBD" cx="17.2833333" cy="17.9788945" rx="6.60833333" ry="6.31690887"></ellipse>
                            </g>
                            <g id="noodles-front" transform="translate(15.300000, 52.058291)" fill="#F3FFBD" stroke="#0D6291" stroke-width="1.8">
                                <g id="noodles-back" transform="translate(13.252951, 0.000000)">
                                    <g id="noodle-bunch-copy-4">
                                        <ellipse id="Oval" cx="12.7432217" cy="12.1747627" rx="12.7432217" ry="12.1747627"></ellipse>
                                        <ellipse id="Oval-Copy" cx="12.8382559" cy="12.2655575" rx="10.7993404" ry="10.3175955"></ellipse>
                                        <ellipse id="Oval-Copy-2" cx="12.7173033" cy="12.1500005" rx="8.63947233" ry="8.25407641"></ellipse>
                                        <ellipse id="Oval-Copy-3" cx="12.5963507" cy="12.0344434" rx="6.47960425" ry="6.19055731"></ellipse>
                                        <ellipse id="Oval-Copy-4" cx="12.475398" cy="11.9188863" rx="4.31973617" ry="4.1270382"></ellipse>
                                    </g>
                                    <g id="noodle-bunch-copy-5" transform="translate(27.015630, 0.000000)">
                                        <ellipse id="Oval" cx="12.7432217" cy="12.1747627" rx="12.7432217" ry="12.1747627"></ellipse>
                                        <ellipse id="Oval-Copy" cx="12.8382559" cy="12.2655575" rx="10.7993404" ry="10.3175955"></ellipse>
                                        <ellipse id="Oval-Copy-2" cx="12.7173033" cy="12.1500005" rx="8.63947233" ry="8.25407641"></ellipse>
                                        <ellipse id="Oval-Copy-3" cx="12.5963507" cy="12.0344434" rx="6.47960425" ry="6.19055731"></ellipse>
                                        <ellipse id="Oval-Copy-4" cx="12.475398" cy="11.9188863" rx="4.31973617" ry="4.1270382"></ellipse>
                                    </g>
                                    <g id="noodle-bunch-copy-6" transform="translate(54.540989, 0.000000)">
                                        <ellipse id="Oval" cx="12.7432217" cy="12.1747627" rx="12.7432217" ry="12.1747627"></ellipse>
                                        <ellipse id="Oval-Copy" cx="12.8382559" cy="12.2655575" rx="10.7993404" ry="10.3175955"></ellipse>
                                        <ellipse id="Oval-Copy-2" cx="12.7173033" cy="12.1500005" rx="8.63947233" ry="8.25407641"></ellipse>
                                        <ellipse id="Oval-Copy-3" cx="12.5963507" cy="12.0344434" rx="6.47960425" ry="6.19055731"></ellipse>
                                        <ellipse id="Oval-Copy-4" cx="12.475398" cy="11.9188863" rx="4.31973617" ry="4.1270382"></ellipse>
                                    </g>
                                </g>
                                <g id="noodles-front-row" transform="translate(0.000000, 1.947962)">
                                    <g id="noodle-bunch-copy">
                                        <ellipse id="Oval" cx="12.7432217" cy="12.1747627" rx="12.7432217" ry="12.1747627"></ellipse>
                                        <ellipse id="Oval-Copy" cx="12.8382559" cy="12.2655575" rx="10.7993404" ry="10.3175955"></ellipse>
                                        <ellipse id="Oval-Copy-2" cx="12.7173033" cy="12.1500005" rx="8.63947233" ry="8.25407641"></ellipse>
                                        <ellipse id="Oval-Copy-3" cx="12.5963507" cy="12.0344434" rx="6.47960425" ry="6.19055731"></ellipse>
                                        <ellipse id="Oval-Copy-4" cx="12.475398" cy="11.9188863" rx="4.31973617" ry="4.1270382"></ellipse>
                                    </g>
                                    <g id="noodle-bunch-copy-2" transform="translate(27.015630, 0.000000)">
                                        <ellipse id="Oval" cx="12.7432217" cy="12.1747627" rx="12.7432217" ry="12.1747627"></ellipse>
                                        <ellipse id="Oval-Copy" cx="12.8382559" cy="12.2655575" rx="10.7993404" ry="10.3175955"></ellipse>
                                        <ellipse id="Oval-Copy-2" cx="12.7173033" cy="12.1500005" rx="8.63947233" ry="8.25407641"></ellipse>
                                        <ellipse id="Oval-Copy-3" cx="12.5963507" cy="12.0344434" rx="6.47960425" ry="6.19055731"></ellipse>
                                        <ellipse id="Oval-Copy-4" cx="12.475398" cy="11.9188863" rx="4.31973617" ry="4.1270382"></ellipse>
                                    </g>
                                    <g id="noodle-bunch-copy-3" transform="translate(54.031260, 0.000000)">
                                        <ellipse id="Oval" cx="12.7432217" cy="12.1747627" rx="12.7432217" ry="12.1747627"></ellipse>
                                        <ellipse id="Oval-Copy" cx="12.8382559" cy="12.2655575" rx="10.7993404" ry="10.3175955"></ellipse>
                                        <ellipse id="Oval-Copy-2" cx="12.7173033" cy="12.1500005" rx="8.63947233" ry="8.25407641"></ellipse>
                                        <ellipse id="Oval-Copy-3" cx="12.5963507" cy="12.0344434" rx="6.47960425" ry="6.19055731"></ellipse>
                                        <ellipse id="Oval-Copy-4" cx="12.475398" cy="11.9188863" rx="4.31973617" ry="4.1270382"></ellipse>
                                    </g>
                                    <g id="noodle-bunch-copy-4" transform="translate(81.046890, 0.000000)">
                                        <ellipse id="Oval" cx="12.7432217" cy="12.1747627" rx="12.7432217" ry="12.1747627"></ellipse>
                                        <ellipse id="Oval-Copy" cx="12.8382559" cy="12.2655575" rx="10.7993404" ry="10.3175955"></ellipse>
                                        <ellipse id="Oval-Copy-2" cx="12.7173033" cy="12.1500005" rx="8.63947233" ry="8.25407641"></ellipse>
                                        <ellipse id="Oval-Copy-3" cx="12.5963507" cy="12.0344434" rx="6.47960425" ry="6.19055731"></ellipse>
                                        <ellipse id="Oval-Copy-4" cx="12.475398" cy="11.9188863" rx="4.31973617" ry="4.1270382"></ellipse>
                                    </g>
                                </g>
                            </g>
                            <g id="ramen-bowl" transform="translate(11.900000, 63.865327)">
                                <g id="Oval-2" transform="translate(0.510256, 3.868372)">
                                    <mask id="mask-4" fill="white">
                                        <use xlink:href="#path-3"></use>
                                    </mask>
                                    <g id="Rectangle"></g>
                                    <ellipse id="Oval" stroke="#0D6291" stroke-width="3.6" fill="#FFFFFF" mask="url(#mask-4)" cx="56.1282051" cy="3.62659834" rx="54.0871795" ry="39.8925817"></ellipse>
                                </g>
                                <rect id="Rectangle" stroke="#0D6291" stroke-width="2.4" fill="#FFFFFF" x="1.2" y="1.2" width="109.85641" height="4.36965023" rx="1.8"></rect>
                                <rect id="Rectangle" stroke="#0D6291" stroke-width="1.8" fill="#7AA0B1" x="3.96153846" y="15.8899398" width="104.84359" height="4.00255734"></rect>
                                <rect id="Rectangle" fill="#FF1654" x="2.04102564" y="1.93418578" width="108.174359" height="1.45063934"></rect>
                                <rect id="Rectangle" stroke="#0D6291" stroke-width="1.2" fill="#FFFFFF" x="10.8051282" y="45.0862729" width="90.6461538" height="1.70127867"></rect>
                                <path d="M7.14358974,6.28610379 L3.06153846,7.73674312" id="Line-10" stroke="#0D6291" stroke-width="2.4" stroke-linecap="square"></path>
                                <path d="M110.215385,6.28610379 L106.133333,7.73674312" id="Line-10-Copy" stroke="#0D6291" stroke-width="2.4" stroke-linecap="square" transform="translate(108.174359, 6.902830) scale(-1, 1) translate(-108.174359, -6.902830) "></path>
                                <path d="M27.8089744,48.3710981 L84.8510567,48.3710981" id="bottom-plate-2" stroke="#0D6291" stroke-width="4.2" stroke-linecap="square"></path>
                                <g id="bowl-design" transform="translate(3.571795, 8.703836)" stroke="#0D6291" stroke-linecap="square" stroke-width="1.2">
                                    <path d="M0.255128205,4.04867701 L6.63333333,4.04867701" id="Line-14"></path>
                                    <path d="M12.5012821,4.04867701 L18.8794872,4.04867701" id="Line-14-Copy-4"></path>
                                    <path d="M24.7474359,4.04867701 L31.125641,4.04867701" id="Line-14-Copy-8"></path>
                                    <path d="M36.9935897,4.04867701 L43.3717949,4.04867701" id="Line-14-Copy-12"></path>
                                    <path d="M49.2397436,4.04867701 L55.6179487,4.04867701" id="Line-14-Copy-16"></path>
                                    <path d="M61.4858974,4.04867701 L67.8641026,4.04867701" id="Line-14-Copy-20"></path>
                                    <path d="M73.7320513,4.04867701 L80.1102564,4.04867701" id="Line-14-Copy-24"></path>
                                    <path d="M85.9782051,4.04867701 L92.3564103,4.04867701" id="Line-14-Copy-28"></path>
                                    <path d="M98.224359,4.04867701 L104.602564,4.04867701" id="Line-14-Copy-32"></path>
                                    <path d="M6.25064103,0.663851899 L12.6288462,0.663851899" id="Line-14-Copy-3"></path>
                                    <path d="M18.4967949,0.663851899 L24.875,0.663851899" id="Line-14-Copy-5"></path>
                                    <path d="M30.7429487,0.663851899 L37.1211538,0.663851899" id="Line-14-Copy-9"></path>
                                    <path d="M42.9891026,0.663851899 L49.3673077,0.663851899" id="Line-14-Copy-13"></path>
                                    <path d="M55.2352564,0.663851899 L61.6134615,0.663851899" id="Line-14-Copy-17"></path>
                                    <path d="M67.4814103,0.663851899 L73.8596154,0.663851899" id="Line-14-Copy-21"></path>
                                    <path d="M79.7275641,0.663851899 L86.1057692,0.663851899" id="Line-14-Copy-25"></path>
                                    <path d="M91.9737179,0.663851899 L98.3519231,0.663851899" id="Line-14-Copy-29"></path>
                                    <path d="M4.58493843,2.41773223 L8.93685644,2.41773223" id="Line-14-Copy" transform="translate(6.760897, 2.417732) rotate(-90.000000) translate(-6.760897, -2.417732) "></path>
                                    <path d="M16.8310923,2.41773223 L21.1830103,2.41773223" id="Line-14-Copy-6" transform="translate(19.007051, 2.417732) rotate(-90.000000) translate(-19.007051, -2.417732) "></path>
                                    <path d="M29.0772461,2.41773223 L33.4291641,2.41773223" id="Line-14-Copy-10" transform="translate(31.253205, 2.417732) rotate(-90.000000) translate(-31.253205, -2.417732) "></path>
                                    <path d="M41.3234,2.41773223 L45.675318,2.41773223" id="Line-14-Copy-14" transform="translate(43.499359, 2.417732) rotate(-90.000000) translate(-43.499359, -2.417732) "></path>
                                    <path d="M53.5695538,2.41773223 L57.9214718,2.41773223" id="Line-14-Copy-18" transform="translate(55.745513, 2.417732) rotate(-90.000000) translate(-55.745513, -2.417732) "></path>
                                    <path d="M65.8157077,2.41773223 L70.1676257,2.41773223" id="Line-14-Copy-22" transform="translate(67.991667, 2.417732) rotate(-90.000000) translate(-67.991667, -2.417732) "></path>
                                    <path d="M78.0618615,2.41773223 L82.4137795,2.41773223" id="Line-14-Copy-26" transform="translate(80.237821, 2.417732) rotate(-90.000000) translate(-80.237821, -2.417732) "></path>
                                    <path d="M90.3080154,2.41773223 L94.6599334,2.41773223" id="Line-14-Copy-30" transform="translate(92.483974, 2.417732) rotate(-90.000000) translate(-92.483974, -2.417732) "></path>
                                    <path d="M102.554169,2.41773223 L106.906087,2.41773223" id="Line-14-Copy-34" transform="translate(104.730128, 2.417732) rotate(-90.000000) translate(-104.730128, -2.417732) "></path>
                                    <path d="M10.0701948,2.41773223 L14.4221128,2.41773223" id="Line-14-Copy-2" transform="translate(12.246154, 2.417732) rotate(-90.000000) translate(-12.246154, -2.417732) "></path>
                                    <path d="M22.3163487,2.41773223 L26.6682667,2.41773223" id="Line-14-Copy-7" transform="translate(24.492308, 2.417732) rotate(-90.000000) translate(-24.492308, -2.417732) "></path>
                                    <path d="M34.5625025,2.41773223 L38.9144205,2.41773223" id="Line-14-Copy-11" transform="translate(36.738462, 2.417732) rotate(-90.000000) translate(-36.738462, -2.417732) "></path>
                                    <path d="M46.8086564,2.41773223 L51.1605744,2.41773223" id="Line-14-Copy-15" transform="translate(48.984615, 2.417732) rotate(-90.000000) translate(-48.984615, -2.417732) "></path>
                                    <path d="M59.0548102,2.41773223 L63.4067282,2.41773223" id="Line-14-Copy-19" transform="translate(61.230769, 2.417732) rotate(-90.000000) translate(-61.230769, -2.417732) "></path>
                                    <path d="M71.3009641,2.41773223 L75.6528821,2.41773223" id="Line-14-Copy-23" transform="translate(73.476923, 2.417732) rotate(-90.000000) translate(-73.476923, -2.417732) "></path>
                                    <path d="M83.5471179,2.41773223 L87.8990359,2.41773223" id="Line-14-Copy-27" transform="translate(85.723077, 2.417732) rotate(-90.000000) translate(-85.723077, -2.417732) "></path>
                                    <path d="M95.7932718,2.41773223 L100.14519,2.41773223" id="Line-14-Copy-31" transform="translate(97.969231, 2.417732) rotate(-90.000000) translate(-97.969231, -2.417732) "></path>
                                </g>
                            </g>
                            <path d="M81.2448252,11.725471 C79.4549113,10.5396167 78.4703391,9.01199775 78.4703391,7.4235952 C78.4703391,5.83519266 79.4549113,4.30642688 81.2448252,3.12171942 C82.058531,2.58269473 82.2628536,1.50923279 81.70246,0.729367278 C81.1587946,-0.0264141509 79.9902126,-0.232849139 79.2075734,0.290119498 C76.4199438,2.13656578 74.8857319,4.66998183 74.8857319,7.4235952 C74.8857319,10.1772086 76.4199438,12.7106246 79.2075734,14.5570709 C80.9974873,15.7429252 81.9820594,17.2705441 81.9820594,18.8589467 C81.9820594,20.4473492 80.9974873,21.976115 79.2075734,23.1608225 C78.3938675,23.6998472 78.1895449,24.7733091 78.7511334,25.5531746 C79.0856967,26.0188002 79.6377262,26.2963406 80.2267967,26.2963406 C80.5924266,26.2963406 80.9437182,26.1908294 81.2448252,25.9912755 C84.0324548,24.1448293 85.5666667,21.6114132 85.5666667,18.8577998 C85.5666667,16.1041865 84.0324548,13.5719173 81.2448252,11.725471 Z M55.6590933,11.725471 C53.8691794,10.5396167 52.8846073,9.01199775 52.8846073,7.4235952 C52.8846073,5.83519266 53.8691794,4.30642688 55.6590933,3.12171942 C56.4727992,2.58269473 56.6771218,1.50923279 56.1155333,0.729367278 C55.570673,-0.0264141509 54.4032859,-0.231702278 53.6218415,0.291266359 C50.8342119,2.13771264 49.3,4.67112869 49.3,7.42474206 C49.3,10.1783554 50.8342119,12.7117715 53.6218415,14.5582178 C55.4117554,15.7440721 56.3963275,17.271691 56.3963275,18.8600936 C56.3963275,20.4484961 55.4117554,21.9772619 53.6218415,23.1619693 C52.8081357,23.700994 52.603813,24.774456 53.1654015,25.5543215 C53.4999649,26.0199471 54.0519944,26.2974874 54.6410648,26.2974874 C55.0066948,26.2974874 55.3579863,26.1919762 55.6590933,25.9924224 C58.4467229,24.1459761 59.9809348,21.6125601 59.9809348,18.8589467 C59.9809348,16.1053333 58.4467229,13.5719173 55.6590933,11.725471 Z M68.4525567,11.725471 C66.6626428,10.5396167 65.6780706,9.01199775 65.6780706,7.4235952 C65.6780706,5.83519266 66.6626428,4.30642688 68.4525567,3.12171942 C68.8456686,2.8602351 69.1109295,2.46800862 69.1969601,2.01614537 C69.2829907,1.56313526 69.1802319,1.10668456 68.9089967,0.728220417 C68.3653312,-0.028707873 67.1967493,-0.230555417 66.4153049,0.290119498 C63.6276753,2.13656578 62.0934634,4.66998183 62.0934634,7.4235952 C62.0934634,10.1772086 63.6276753,12.7106246 66.4153049,14.5570709 C68.2052188,15.7429252 69.1897909,17.2705441 69.1897909,18.8589467 C69.1897909,20.4473492 68.2052188,21.976115 66.4153049,23.1608225 C65.601599,23.6998472 65.3972764,24.7733091 65.9588649,25.5531746 C66.2934282,26.0188002 66.8454577,26.2963406 67.4345282,26.2963406 C67.8001581,26.2963406 68.1514497,26.1908294 68.4525567,25.9912755 C71.2401863,24.1448293 72.7743982,21.6114132 72.7743982,18.8577998 C72.7743982,16.1041865 71.2401863,13.5719173 68.4525567,11.725471 Z" id="steam" stroke="#0D6291" stroke-width="2.4" fill="#FFFFFF" fill-rule="nonzero"></path>
                            <g id="base-table" transform="translate(14.166667, 113.240201)" stroke="#0D6291">
                                <rect id="Rectangle" stroke-width="3" fill="#7AA0B1" x="1.5" y="1.5" width="110.333333" height="12.0271357"></rect>
                                <path d="M87.8078078,6.54407521 L112.822823,6.54407521" id="Line-13" stroke-width="1.2" stroke-linecap="square"></path>
                                <path d="M70.960961,8.96780678 L112.822823,9.45255309" id="Line-13-Copy" stroke-width="1.2" stroke-linecap="square"></path>
                            </g>
                        </g>
                    </g>
                </g>
            </g>
        </g>
    </g>
</svg>