<?xml version="1.0" encoding="UTF-8"?>
<svg width="231px" height="302px" viewBox="0 0 231 302" version="1.1" xmlns="http://www.w3.org/2000/svg" xmlns:xlink="http://www.w3.org/1999/xlink">
    <!-- Generator: Sketch 55.2 (78181) - https://sketchapp.com -->
    <title>Ramen Stop</title>
    <desc>Created with Sketch.</desc>
    <defs>
        <rect id="path-1" x="0" y="0" width="198.099548" height="75.6831683"></rect>
    </defs>
    <g id="Page-1" stroke="none" stroke-width="1" fill="none" fill-rule="evenodd">
        <g id="Landing-page-Header" transform="translate(-472.000000, -28.000000)">
            <g id="Ramen-Stop" transform="translate(480.000000, 30.000000)">
                <g id="pin" transform="translate(0.000000, 31.000000)" fill="#65D5D8" stroke="#FFFFFF">
                    <ellipse id="Oval" stroke-width="13" cx="108.137789" cy="146.049361" rx="51.7259414" ry="116.240614"></ellipse>
                    <ellipse id="Oval" stroke-width="16" cx="107.5" cy="107.264505" rx="107.5" ry="107.264505"></ellipse>
                </g>
                <g id="chopsticks" transform="translate(82.000000, 11.000000)">
                    <g id="chopstick" transform="translate(54.353172, 95.297410) rotate(-62.000000) translate(-54.353172, -95.297410) translate(-50.146828, 89.797410)">
                        <path d="M1.49482969,3.1434993 C1.22071899,3.14633392 1,3.3693472 1,3.64347257 L1,7.15104798 C1,7.42517335 1.22071899,7.64818663 1.49482969,7.65102125 L207.26283,9.77890187 C207.265415,9.77892414 207.265415,9.77892414 207.268,9.7789286 C207.544142,9.7789286 207.768,9.55507097 207.768,9.2789286 L207.768,1.51559195 C207.767996,1.51300675 207.767996,1.51300675 207.767973,1.51042164 C207.765118,1.23429403 207.538957,1.0127632 207.26283,1.01561868 L1.49482969,3.1434993 Z" id="Rectangle" stroke="#0D6291" stroke-width="2" fill="#197EB6"></path>
                        <polygon id="Path-10" fill="#0D6291" points="1.9985 4.94748858 207.062625 3.62891963 207.062625 8.94448309 1.9985 7.19634703"></polygon>
                    </g>
                    <g id="chopstick-copy" transform="translate(57.937172, 101.594213) rotate(-62.000000) translate(-57.937172, -101.594213) translate(-46.562828, 96.094213)">
                        <path d="M1.49482969,3.1434993 C1.22071899,3.14633392 1,3.3693472 1,3.64347257 L1,7.15104798 C1,7.42517335 1.22071899,7.64818663 1.49482969,7.65102125 L207.26283,9.77890187 C207.265415,9.77892414 207.265415,9.77892414 207.268,9.7789286 C207.544142,9.7789286 207.768,9.55507097 207.768,9.2789286 L207.768,1.51559195 C207.767996,1.51300675 207.767996,1.51300675 207.767973,1.51042164 C207.765118,1.23429403 207.538957,1.0127632 207.26283,1.01561868 L1.49482969,3.1434993 Z" id="Rectangle" stroke="#0D6291" stroke-width="2" fill="#197EB6"></path>
                        <polygon id="Path-10" fill="#0D6291" points="1.9985 4.94748858 207.062625 3.62891963 207.062625 8.94448309 1.9985 7.19634703"></polygon>
                    </g>
                </g>
                <g id="noodles-back" transform="translate(65.000000, 91.000000)" fill="#F3FFBD" stroke="#0D6291" stroke-width="3">
                    <g id="noodle-bunch-copy-6">
                        <ellipse id="Oval" cx="22.4637681" cy="22.5" rx="22.4637681" ry="22.5"></ellipse>
                        <ellipse id="Oval-Copy" cx="22.6312945" cy="22.6677966" rx="19.0370916" ry="19.0677966"></ellipse>
                        <ellipse id="Oval-Copy-2" cx="22.4180791" cy="22.4542373" rx="15.2296733" ry="15.2542373"></ellipse>
                        <ellipse id="Oval-Copy-3" cx="22.2048637" cy="22.240678" rx="11.422255" ry="11.440678"></ellipse>
                        <ellipse id="Oval-Copy-4" cx="21.9916482" cy="22.0271186" rx="7.61483665" ry="7.62711864"></ellipse>
                    </g>
                    <g id="noodle-bunch-copy-7" transform="translate(39.536232, 0.000000)">
                        <ellipse id="Oval" cx="22.4637681" cy="22.5" rx="22.4637681" ry="22.5"></ellipse>
                        <ellipse id="Oval-Copy" cx="22.6312945" cy="22.6677966" rx="19.0370916" ry="19.0677966"></ellipse>
                        <ellipse id="Oval-Copy-2" cx="22.4180791" cy="22.4542373" rx="15.2296733" ry="15.2542373"></ellipse>
                        <ellipse id="Oval-Copy-3" cx="22.2048637" cy="22.240678" rx="11.422255" ry="11.440678"></ellipse>
                        <ellipse id="Oval-Copy-4" cx="21.9916482" cy="22.0271186" rx="7.61483665" ry="7.62711864"></ellipse>
                    </g>
                    <g id="noodle-bunch-copy-8" transform="translate(79.072464, 0.000000)">
                        <ellipse id="Oval" cx="22.4637681" cy="22.5" rx="22.4637681" ry="22.5"></ellipse>
                        <ellipse id="Oval-Copy" cx="22.6312945" cy="22.6677966" rx="19.0370916" ry="19.0677966"></ellipse>
                        <ellipse id="Oval-Copy-2" cx="22.4180791" cy="22.4542373" rx="15.2296733" ry="15.2542373"></ellipse>
                        <ellipse id="Oval-Copy-3" cx="22.2048637" cy="22.240678" rx="11.422255" ry="11.440678"></ellipse>
                        <ellipse id="Oval-Copy-4" cx="21.9916482" cy="22.0271186" rx="7.61483665" ry="7.62711864"></ellipse>
                    </g>
                </g>
                <g id="seaweed" transform="translate(39.000000, 60.000000)" stroke="#0D6291">
                    <g id="seaweed-copy" transform="translate(7.164179, 6.319444)">
                        <g id="seaweed-piece">
                            <polygon id="Path-9" stroke-width="4" fill="#7AA0B1" points="0 47.6585558 12.4462434 0 52.8358209 2.66072591 39.7369087 58.4918891"></polygon>
                            <path d="M16.5671642,6.58216688 L49.2537313,9.29050022" id="Line-11" stroke-opacity="0.8" stroke-width="3" stroke-linecap="square"></path>
                            <path d="M15.6716418,17.4155002 L48.358209,20.1238336" id="Line-11-Copy-2" stroke-opacity="0.8" stroke-width="3" stroke-linecap="square"></path>
                            <path d="M16.5671642,11.9988336 L49.2537313,14.7071669" id="Line-11-Copy" stroke-opacity="0.8" stroke-width="3" stroke-linecap="square"></path>
                        </g>
                    </g>
                    <g transform="translate(0.000000, -0.000000)" id="seaweed-piece">
                        <g>
                            <polygon id="Path-9" stroke-width="4" fill="#7AA0B1" points="0 47.6585558 12.4462434 0 52.8358209 2.66072591 39.7369087 58.4918891"></polygon>
                            <path d="M16.5671642,6.58216688 L49.2537313,9.29050022" id="Line-11" stroke-opacity="0.8" stroke-width="3" stroke-linecap="square"></path>
                            <path d="M15.6716418,17.4155002 L48.358209,20.1238336" id="Line-11-Copy-2" stroke-opacity="0.8" stroke-width="3" stroke-linecap="square"></path>
                            <path d="M16.5671642,11.9988336 L49.2537313,14.7071669" id="Line-11-Copy" stroke-opacity="0.8" stroke-width="3" stroke-linecap="square"></path>
                        </g>
                    </g>
                </g>
                <g id="shrimp" transform="translate(104.808661, 100.876539) rotate(25.000000) translate(-104.808661, -100.876539) translate(85.808661, 55.376539)" stroke="#0D6291" stroke-width="4">
                    <g id="tail" transform="translate(0.869070, 0.206082)" fill="#F59971">
                        <path d="M13.339268,23.1963303 C0.53030729,12.9588558 -3.05385144,5.79873269 2.58679181,1.71596091 C11.0477567,-4.40819677 20.5663422,7.44629782 19.8612617,12.4561456 C19.3912081,15.7960441 17.2172102,19.3761057 13.339268,23.1963303 Z" id="Path-11"></path>
                        <path d="M28.5247423,24.2752294 C15.7157816,14.0377549 12.1316229,6.87763177 17.7722661,2.79485999 C26.233231,-3.32929768 35.7518165,8.5251969 35.046736,13.5350447 C34.5766824,16.8749432 32.4026845,20.4550048 28.5247423,24.2752294 Z" id="Path-11-Copy" transform="translate(25.134578, 12.677064) scale(-1, 1) translate(-25.134578, -12.677064) "></path>
                    </g>
                    <path d="M9.91552949,53.0483802 L11.519293,53.3725405 L11.519293,56.0689542 L11.0159647,56.6367926 C9.96863015,57.8183611 9.38278674,59.3309227 9.38278674,60.938897 C9.38278674,62.0153578 9.64422556,63.0500083 10.1379937,63.977919 L11.2079369,65.9886028 L9.07581725,66.7896607 C8.30176024,67.0804814 7.78040703,67.8179223 7.78040703,68.650746 C7.78040703,69.2307044 8.02957579,69.7667143 8.46114629,70.1438683 L10.135614,71.6072028 L8.50353941,73.1176739 C8.04371288,73.5432394 7.78040703,74.1320717 7.78040703,74.7670401 C7.78040703,75.7634173 8.43873783,76.6355006 9.38532391,76.9234323 L11.391179,77.5335714 L10.6871739,79.5084388 C10.5315603,79.9449643 10.4510399,80.4072715 10.4510399,80.8833342 C10.4510399,83.1410778 12.2825076,84.9797525 14.556233,84.9994669 L15.7292504,85.0096375 L16.2928938,86.0384132 C17.0139843,87.3545649 18.3987958,88.1907383 19.9347611,88.1907383 C21.7630964,88.1907383 23.3584185,87.0031629 23.8916114,85.2982693 L24.5959691,83.0460733 L26.7022386,84.1100918 C27.1656764,84.3442055 27.6786328,84.4677767 28.2137229,84.4677767 C30.0609594,84.4677767 31.5549886,82.9801107 31.5549886,81.1492601 C31.5549886,81.0679579 31.5520827,80.9871841 31.546309,80.9070061 L31.4841605,80.0439663 L32.0706373,79.4077704 C32.7666487,78.6527541 33.1573683,77.6733991 33.1573683,76.6285209 C33.1573683,75.3539094 32.5730576,74.1782645 31.5852302,73.4001277 L29.3746675,71.6588111 L31.7459829,70.143676 C33.6113837,68.9517915 34.759748,66.9053488 34.759748,64.6618586 C34.759748,63.4010452 34.4006732,62.1979749 33.7335973,61.1607461 L32.4585965,59.1782618 L34.6222201,58.2430593 C35.3495546,57.928677 35.8280012,57.2164421 35.8280012,56.4181578 C35.8280012,55.5642084 35.279586,54.811824 34.4771958,54.5371912 L32.9961392,54.0302721 L33.1324438,52.4708117 C33.1490216,52.2811458 33.1573683,52.089917 33.1573683,51.8974187 C33.1573683,50.3050974 32.5829671,48.8062579 31.5540864,47.629277 L30.4034166,46.3129763 L31.5540864,44.9966756 C32.5829671,43.8196947 33.1573683,42.3208552 33.1573683,40.7285339 C33.1573683,39.03875 32.5098399,37.4548569 31.3643331,36.252484 L29.9659264,34.7846568 L31.4525957,33.4062981 C31.8575983,33.0308018 32.0891152,32.5124225 32.0891152,31.9529815 C32.0891152,31.3249679 31.7959496,30.7482236 31.3007364,30.3721217 L29.5897842,29.0726965 L31.0081847,27.459004 C32.0443373,26.280189 32.6232418,24.7759297 32.6232418,23.1774291 C32.6232418,19.584177 29.6943929,16.6678025 26.0772167,16.6678025 C24.2512989,16.6678025 22.5503276,17.4122336 21.3204033,18.705396 L20.729139,19.3270608 L12.5289996,19.3270608 L11.9288695,18.5314931 C11.5510119,18.0305829 10.9630657,17.7315058 10.3204829,17.7315058 C9.21072125,17.7315058 8.3145336,18.6238765 8.3145336,19.7203933 C8.3145336,20.1902943 8.47691402,20.6303763 8.77193048,20.9847777 L9.59184132,21.9697314 L9.03958144,23.1261901 C8.91434248,23.3884464 8.84866017,23.6752282 8.84866017,23.9752066 C8.84866017,24.8229916 9.38911601,25.5710542 10.18326,25.8505483 L11.519293,26.320757 L11.519293,29.8863911 L9.60440952,29.9679591 C7.3935205,30.062136 5.64390075,31.8758782 5.64390075,34.0803881 C5.64390075,35.8396027 6.76528667,37.3889708 8.40960558,37.9644582 L10.2211367,38.5984673 L9.66225849,40.4345686 C9.47769304,41.0409276 9.38278674,41.675046 9.38278674,42.3240888 C9.38278674,43.7193637 9.82300461,45.0435433 10.6296916,46.1468781 L12.2319273,48.3383135 L9.66409507,49.2191007 C8.86233661,49.4941104 8.3145336,50.2461645 8.3145336,51.0996412 C8.3145336,52.0474481 8.99011479,52.861331 9.91552949,53.0483802 Z" id="Combined-Shape" fill="#FFDA6A"></path>
                </g>
                <g id="egg" transform="translate(8.000000, 66.000000)" stroke="#0D6291" stroke-width="4">
                    <ellipse id="Oval" fill="#FFFFFF" transform="translate(30.500000, 33.500000) rotate(-21.000000) translate(-30.500000, -33.500000) " cx="30.5" cy="33.5" rx="21.5553044" ry="27.1300888"></ellipse>
                    <ellipse id="Oval" fill="#F3FFBD" cx="30.5" cy="33.5" rx="11.6617647" ry="11.7702703"></ellipse>
                </g>
                <g id="noodles-front" transform="translate(14.000000, 97.000000)" fill="#F3FFBD" stroke="#0D6291" stroke-width="3">
                    <g id="noodles-back" transform="translate(23.387560, 0.000000)">
                        <g id="noodle-bunch-copy-4">
                            <ellipse id="Oval" cx="22.4880383" cy="22.6851852" rx="22.4880383" ry="22.6851852"></ellipse>
                            <ellipse id="Oval-Copy" cx="22.6557457" cy="22.8543628" rx="19.0576596" ry="19.2247332"></ellipse>
                            <ellipse id="Oval-Copy-2" cx="22.4422999" cy="22.6390458" rx="15.2461276" ry="15.3797866"></ellipse>
                            <ellipse id="Oval-Copy-3" cx="22.2288541" cy="22.4237288" rx="11.4345957" ry="11.5348399"></ellipse>
                            <ellipse id="Oval-Copy-4" cx="22.0154083" cy="22.2084118" rx="7.62306382" ry="7.68989328"></ellipse>
                        </g>
                        <g id="noodle-bunch-copy-5" transform="translate(47.674641, 0.000000)">
                            <ellipse id="Oval" cx="22.4880383" cy="22.6851852" rx="22.4880383" ry="22.6851852"></ellipse>
                            <ellipse id="Oval-Copy" cx="22.6557457" cy="22.8543628" rx="19.0576596" ry="19.2247332"></ellipse>
                            <ellipse id="Oval-Copy-2" cx="22.4422999" cy="22.6390458" rx="15.2461276" ry="15.3797866"></ellipse>
                            <ellipse id="Oval-Copy-3" cx="22.2288541" cy="22.4237288" rx="11.4345957" ry="11.5348399"></ellipse>
                            <ellipse id="Oval-Copy-4" cx="22.0154083" cy="22.2084118" rx="7.62306382" ry="7.68989328"></ellipse>
                        </g>
                        <g id="noodle-bunch-copy-6" transform="translate(96.248804, 0.000000)">
                            <ellipse id="Oval" cx="22.4880383" cy="22.6851852" rx="22.4880383" ry="22.6851852"></ellipse>
                            <ellipse id="Oval-Copy" cx="22.6557457" cy="22.8543628" rx="19.0576596" ry="19.2247332"></ellipse>
                            <ellipse id="Oval-Copy-2" cx="22.4422999" cy="22.6390458" rx="15.2461276" ry="15.3797866"></ellipse>
                            <ellipse id="Oval-Copy-3" cx="22.2288541" cy="22.4237288" rx="11.4345957" ry="11.5348399"></ellipse>
                            <ellipse id="Oval-Copy-4" cx="22.0154083" cy="22.2084118" rx="7.62306382" ry="7.68989328"></ellipse>
                        </g>
                    </g>
                    <g id="noodles-front-row" transform="translate(0.000000, 3.629630)">
                        <g id="noodle-bunch-copy">
                            <ellipse id="Oval" cx="22.4880383" cy="22.6851852" rx="22.4880383" ry="22.6851852"></ellipse>
                            <ellipse id="Oval-Copy" cx="22.6557457" cy="22.8543628" rx="19.0576596" ry="19.2247332"></ellipse>
                            <ellipse id="Oval-Copy-2" cx="22.4422999" cy="22.6390458" rx="15.2461276" ry="15.3797866"></ellipse>
                            <ellipse id="Oval-Copy-3" cx="22.2288541" cy="22.4237288" rx="11.4345957" ry="11.5348399"></ellipse>
                            <ellipse id="Oval-Copy-4" cx="22.0154083" cy="22.2084118" rx="7.62306382" ry="7.68989328"></ellipse>
                        </g>
                        <g id="noodle-bunch-copy-2" transform="translate(47.674641, 0.000000)">
                            <ellipse id="Oval" cx="22.4880383" cy="22.6851852" rx="22.4880383" ry="22.6851852"></ellipse>
                            <ellipse id="Oval-Copy" cx="22.6557457" cy="22.8543628" rx="19.0576596" ry="19.2247332"></ellipse>
                            <ellipse id="Oval-Copy-2" cx="22.4422999" cy="22.6390458" rx="15.2461276" ry="15.3797866"></ellipse>
                            <ellipse id="Oval-Copy-3" cx="22.2288541" cy="22.4237288" rx="11.4345957" ry="11.5348399"></ellipse>
                            <ellipse id="Oval-Copy-4" cx="22.0154083" cy="22.2084118" rx="7.62306382" ry="7.68989328"></ellipse>
                        </g>
                        <g id="noodle-bunch-copy-3" transform="translate(95.349282, 0.000000)">
                            <ellipse id="Oval" cx="22.4880383" cy="22.6851852" rx="22.4880383" ry="22.6851852"></ellipse>
                            <ellipse id="Oval-Copy" cx="22.6557457" cy="22.8543628" rx="19.0576596" ry="19.2247332"></ellipse>
                            <ellipse id="Oval-Copy-2" cx="22.4422999" cy="22.6390458" rx="15.2461276" ry="15.3797866"></ellipse>
                            <ellipse id="Oval-Copy-3" cx="22.2288541" cy="22.4237288" rx="11.4345957" ry="11.5348399"></ellipse>
                            <ellipse id="Oval-Copy-4" cx="22.0154083" cy="22.2084118" rx="7.62306382" ry="7.68989328"></ellipse>
                        </g>
                        <g id="noodle-bunch-copy-4" transform="translate(143.023923, 0.000000)">
                            <ellipse id="Oval" cx="22.4880383" cy="22.6851852" rx="22.4880383" ry="22.6851852"></ellipse>
                            <ellipse id="Oval-Copy" cx="22.6557457" cy="22.8543628" rx="19.0576596" ry="19.2247332"></ellipse>
                            <ellipse id="Oval-Copy-2" cx="22.4422999" cy="22.6390458" rx="15.2461276" ry="15.3797866"></ellipse>
                            <ellipse id="Oval-Copy-3" cx="22.2288541" cy="22.4237288" rx="11.4345957" ry="11.5348399"></ellipse>
                            <ellipse id="Oval-Copy-4" cx="22.0154083" cy="22.2084118" rx="7.62306382" ry="7.68989328"></ellipse>
                        </g>
                    </g>
                </g>
                <g id="ramen-bowl" transform="translate(8.000000, 119.000000)">
                    <g id="Oval-2" transform="translate(0.900452, 7.207921)">
                        <mask id="mask-2" fill="white">
                            <use xlink:href="#path-1"></use>
                        </mask>
                        <g id="Rectangle"></g>
                        <ellipse id="Oval" stroke="#0D6291" stroke-width="6" fill="#FFFFFF" mask="url(#mask-2)" cx="99.0497738" cy="6.75742574" rx="95.4479638" ry="74.3316832"></ellipse>
                    </g>
                    <rect id="Rectangle" stroke="#0D6291" stroke-width="4" fill="#FFFFFF" x="2" y="2" width="194.099548" height="8.61386139" rx="3"></rect>
                    <rect id="Rectangle" stroke="#0D6291" stroke-width="3" fill="#7AA0B1" x="6.90271493" y="29.4306931" width="185.19457" height="7.81188119"></rect>
                    <rect id="Rectangle" fill="#FF1654" x="3.60180995" y="3.6039604" width="190.895928" height="2.7029703"></rect>
                    <rect id="Rectangle" stroke="#0D6291" stroke-width="2" fill="#FFFFFF" x="19.0090498" y="83.8910891" width="160.081448" height="3.40594059"></rect>
                    <path d="M12.6063348,11.7128713 L5.40271493,14.4158416" id="Line-10" stroke="#0D6291" stroke-width="4" stroke-linecap="square"></path>
                    <path d="M194.497738,11.7128713 L187.294118,14.4158416" id="Line-10-Copy" stroke="#0D6291" stroke-width="4" stroke-linecap="square" transform="translate(190.895928, 12.862015) scale(-1, 1) translate(-190.895928, -12.862015) "></path>
                    <path d="M49.0746606,90.0990099 L149.737159,90.0990099" id="bottom-plate-2" stroke="#0D6291" stroke-width="7" stroke-linecap="square"></path>
                    <g id="bowl-design" transform="translate(6.303167, 16.217822)" stroke="#0D6291" stroke-linecap="square" stroke-width="2">
                        <path d="M0.450226244,7.5438832 L11.7058824,7.5438832" id="Line-14"></path>
                        <path d="M22.061086,7.5438832 L33.3167421,7.5438832" id="Line-14-Copy-4"></path>
                        <path d="M43.6719457,7.5438832 L54.9276018,7.5438832" id="Line-14-Copy-8"></path>
                        <path d="M65.2828054,7.5438832 L76.5384615,7.5438832" id="Line-14-Copy-12"></path>
                        <path d="M86.8936652,7.5438832 L98.1493213,7.5438832" id="Line-14-Copy-16"></path>
                        <path d="M108.504525,7.5438832 L119.760181,7.5438832" id="Line-14-Copy-20"></path>
                        <path d="M130.115385,7.5438832 L141.371041,7.5438832" id="Line-14-Copy-24"></path>
                        <path d="M151.726244,7.5438832 L162.9819,7.5438832" id="Line-14-Copy-28"></path>
                        <path d="M173.337104,7.5438832 L184.59276,7.5438832" id="Line-14-Copy-32"></path>
                        <path d="M11.030543,1.23695251 L22.2861991,1.23695251" id="Line-14-Copy-3"></path>
                        <path d="M32.6414027,1.23695251 L43.8970588,1.23695251" id="Line-14-Copy-5"></path>
                        <path d="M54.2522624,1.23695251 L65.5079186,1.23695251" id="Line-14-Copy-9"></path>
                        <path d="M75.8631222,1.23695251 L87.1187783,1.23695251" id="Line-14-Copy-13"></path>
                        <path d="M97.4739819,1.23695251 L108.729638,1.23695251" id="Line-14-Copy-17"></path>
                        <path d="M119.084842,1.23695251 L130.340498,1.23695251" id="Line-14-Copy-21"></path>
                        <path d="M140.695701,1.23695251 L151.951357,1.23695251" id="Line-14-Copy-25"></path>
                        <path d="M162.306561,1.23695251 L173.562217,1.23695251" id="Line-14-Copy-29"></path>
                        <path d="M7.87654003,4.5049505 L15.9854509,4.5049505" id="Line-14-Copy" transform="translate(11.930995, 4.504950) rotate(-90.000000) translate(-11.930995, -4.504950) "></path>
                        <path d="M29.4873998,4.5049505 L37.5963106,4.5049505" id="Line-14-Copy-6" transform="translate(33.541855, 4.504950) rotate(-90.000000) translate(-33.541855, -4.504950) "></path>
                        <path d="M51.0982595,4.5049505 L59.2071704,4.5049505" id="Line-14-Copy-10" transform="translate(55.152715, 4.504950) rotate(-90.000000) translate(-55.152715, -4.504950) "></path>
                        <path d="M72.7091192,4.5049505 L80.8180301,4.5049505" id="Line-14-Copy-14" transform="translate(76.763575, 4.504950) rotate(-90.000000) translate(-76.763575, -4.504950) "></path>
                        <path d="M94.3199789,4.5049505 L102.42889,4.5049505" id="Line-14-Copy-18" transform="translate(98.374434, 4.504950) rotate(-90.000000) translate(-98.374434, -4.504950) "></path>
                        <path d="M115.930839,4.5049505 L124.03975,4.5049505" id="Line-14-Copy-22" transform="translate(119.985294, 4.504950) rotate(-90.000000) translate(-119.985294, -4.504950) "></path>
                        <path d="M137.541698,4.5049505 L145.650609,4.5049505" id="Line-14-Copy-26" transform="translate(141.596154, 4.504950) rotate(-90.000000) translate(-141.596154, -4.504950) "></path>
                        <path d="M159.152558,4.5049505 L167.261469,4.5049505" id="Line-14-Copy-30" transform="translate(163.207014, 4.504950) rotate(-90.000000) translate(-163.207014, -4.504950) "></path>
                        <path d="M180.763418,4.5049505 L188.872329,4.5049505" id="Line-14-Copy-34" transform="translate(184.817873, 4.504950) rotate(-90.000000) translate(-184.817873, -4.504950) "></path>
                        <path d="M17.5564043,4.5049505 L25.6653152,4.5049505" id="Line-14-Copy-2" transform="translate(21.610860, 4.504950) rotate(-90.000000) translate(-21.610860, -4.504950) "></path>
                        <path d="M39.167264,4.5049505 L47.2761749,4.5049505" id="Line-14-Copy-7" transform="translate(43.221719, 4.504950) rotate(-90.000000) translate(-43.221719, -4.504950) "></path>
                        <path d="M60.7781237,4.5049505 L68.8870346,4.5049505" id="Line-14-Copy-11" transform="translate(64.832579, 4.504950) rotate(-90.000000) translate(-64.832579, -4.504950) "></path>
                        <path d="M82.3889835,4.5049505 L90.4978944,4.5049505" id="Line-14-Copy-15" transform="translate(86.443439, 4.504950) rotate(-90.000000) translate(-86.443439, -4.504950) "></path>
                        <path d="M103.999843,4.5049505 L112.108754,4.5049505" id="Line-14-Copy-19" transform="translate(108.054299, 4.504950) rotate(-90.000000) translate(-108.054299, -4.504950) "></path>
                        <path d="M125.610703,4.5049505 L133.719614,4.5049505" id="Line-14-Copy-23" transform="translate(129.665158, 4.504950) rotate(-90.000000) translate(-129.665158, -4.504950) "></path>
                        <path d="M147.221563,4.5049505 L155.330474,4.5049505" id="Line-14-Copy-27" transform="translate(151.276018, 4.504950) rotate(-90.000000) translate(-151.276018, -4.504950) "></path>
                        <path d="M168.832422,4.5049505 L176.941333,4.5049505" id="Line-14-Copy-31" transform="translate(172.886878, 4.504950) rotate(-90.000000) translate(-172.886878, -4.504950) "></path>
                    </g>
                </g>
                <path d="M130.373221,21.8480218 C127.214549,19.6384243 125.477069,16.7920183 125.477069,13.8323544 C125.477069,10.8726904 127.214549,8.02414747 130.373221,5.81668693 C131.809172,4.81232445 132.169742,2.81214724 131.180812,1.35902704 C130.221402,-0.0492173786 128.159199,-0.433866842 126.778071,0.540578465 C121.858724,3.98105422 119.151292,8.70155791 119.151292,13.8323544 C119.151292,18.9631508 121.858724,23.6836545 126.778071,27.1241303 C129.936742,29.3337277 131.674222,32.1801338 131.674222,35.1397977 C131.674222,38.0994616 129.936742,40.9480046 126.778071,43.1554651 C125.342119,44.1598276 124.98155,46.1600048 125.972588,47.613125 C126.562994,48.4807232 127.537164,48.9978631 128.5767,48.9978631 C129.221929,48.9978631 129.841856,48.8012644 130.373221,48.4294366 C135.292567,44.9889609 138,40.2684572 138,35.1376607 C138,30.0068643 135.292567,25.2884975 130.373221,21.8480218 Z M85.2219294,21.8480218 C82.0632578,19.6384243 80.3257775,16.7920183 80.3257775,13.8323544 C80.3257775,10.8726904 82.0632578,8.02414747 85.2219294,5.81668693 C86.6578809,4.81232445 87.0184502,2.81214724 86.0274117,1.35902704 C85.0658935,-0.0492173786 83.0057986,-0.4317299 81.6267791,0.542715406 C76.7074328,3.98319116 74,8.70369485 74,13.8344913 C74,18.9652878 76.7074328,23.6857914 81.6267791,27.1262672 C84.7854507,29.3358647 86.5229309,32.1822707 86.5229309,35.1419346 C86.5229309,38.1015985 84.7854507,40.9501415 81.6267791,43.157602 C80.1908276,44.1619645 79.8302583,46.1621417 80.8212968,47.6152619 C81.4117027,48.4828602 82.3858724,49 83.4254085,49 C84.0706378,49 84.690564,48.8034014 85.2219294,48.4315736 C90.1412757,44.9910978 92.8487085,40.2705941 92.8487085,35.1397977 C92.8487085,30.0090012 90.1412757,25.2884975 85.2219294,21.8480218 Z M107.798629,21.8480218 C104.639958,19.6384243 102.902478,16.7920183 102.902478,13.8323544 C102.902478,10.8726904 104.639958,8.02414747 107.798629,5.81668693 C108.492356,5.32946428 108.960464,4.5986303 109.112283,3.75667537 C109.264101,2.91258349 109.082762,2.06208079 108.604112,1.3568901 C107.644702,-0.0534912615 105.582499,-0.429592959 104.203479,0.540578465 C99.2841328,3.98105422 96.5767001,8.70155791 96.5767001,13.8323544 C96.5767001,18.9631508 99.2841328,23.6836545 104.203479,27.1241303 C107.362151,29.3337277 109.099631,32.1801338 109.099631,35.1397977 C109.099631,38.0994616 107.362151,40.9480046 104.203479,43.1554651 C102.767528,44.1598276 102.406958,46.1600048 103.397997,47.613125 C103.988403,48.4807232 104.962572,48.9978631 106.002109,48.9978631 C106.647338,48.9978631 107.267264,48.8012644 107.798629,48.4294366 C112.717976,44.9889609 115.425409,40.2684572 115.425409,35.1376607 C115.425409,30.0068643 112.717976,25.2884975 107.798629,21.8480218 Z" id="steam" stroke="#0D6291" stroke-width="4" fill="#FFFFFF" fill-rule="nonzero"></path>
                <g id="base-table" transform="translate(12.000000, 211.000000)" stroke="#0D6291">
                    <rect id="Rectangle" stroke-width="5" fill="#7AA0B1" x="2.5" y="2.5" width="195" height="23"></rect>
                    <path d="M154.954955,12.1935484 L199.099099,12.1935484" id="Line-13" stroke-width="2" stroke-linecap="square"></path>
                    <path d="M125.225225,16.7096774 L199.099099,17.6129032" id="Line-13-Copy" stroke-width="2" stroke-linecap="square"></path>
                </g>
            </g>
        </g>
    </g>
</svg>